<?xml version="1.0" standalone="no"?>
<!DOCTYPE svg PUBLIC "-//W3C//DTD SVG 20010904//EN"
 "http://www.w3.org/TR/2001/REC-SVG-20010904/DTD/svg10.dtd">
<svg version="1.0" xmlns="http://www.w3.org/2000/svg"
 width="187.000000pt" height="182.000000pt" viewBox="0 0 187.000000 182.000000"
 preserveAspectRatio="xMidYMid meet">
<metadata>
Created by potrace 1.16, written by Peter Selinger 2001-2019
</metadata>
<g transform="translate(0.000000,182.000000) scale(0.100000,-0.100000)"
fill="#000000" stroke="none">
<path d="M1456 1675 c-111 -21 -116 -26 -64 -60 61 -40 201 -179 245 -242 44
-64 46 -62 69 68 15 87 15 221 1 235 -13 14 -177 13 -251 -1z"/>
<path d="M1167 1576 c-203 -102 -411 -281 -655 -561 l-61 -70 261 -262 262
-262 50 42 c175 146 386 367 475 497 59 85 141 237 141 259 0 23 -85 137 -159
214 -71 74 -208 177 -234 177 -7 0 -43 -15 -80 -34z m179 -260 c29 -29 34 -41
34 -79 0 -54 -33 -100 -84 -117 -27 -9 -42 -8 -74 5 -124 50 -89 225 45 225
38 0 50 -5 79 -34z"/>
<path d="M170 1144 c-109 -110 -121 -126 -95 -121 17 3 81 13 143 23 l113 17
32 -31 32 -31 97 109 98 109 -53 10 c-28 6 -88 15 -132 21 -44 6 -87 13 -95
16 -10 2 -62 -44 -140 -122z"/>
<path d="M442 773 c-12 -21 -31 -52 -41 -68 l-20 -31 162 -162 162 -161 55 35
c30 19 62 39 70 44 12 7 -25 49 -170 195 -102 102 -187 185 -191 185 -3 0 -15
-17 -27 -37z"/>
<path d="M1214 529 c-16 -17 -64 -60 -107 -96 l-78 -66 32 -33 32 -33 -17
-113 c-10 -62 -20 -126 -23 -143 -5 -26 10 -14 119 93 l125 123 -22 145 c-12
79 -24 146 -27 149 -2 3 -18 -9 -34 -26z"/>
<path d="M343 467 c-84 -47 -151 -154 -160 -258 l-6 -60 39 6 c121 20 195 59
248 128 51 66 50 136 0 176 -30 24 -87 27 -121 8z"/>
</g>
</svg>
